<svg width="18" height="17" fill="none" xmlns="http://www.w3.org/2000/svg"><path fill-rule="evenodd" clip-rule="evenodd" d="M1.4 11.016a1.8 1.8 0 0 0 1.8 1.8h.597v2.92l4.383-2.92h4.62a1.8 1.8 0 0 0 1.8-1.8v-7.2a1.8 1.8 0 0 0-1.8-1.8H3.2a1.8 1.8 0 0 0-1.8 1.8v7.2Zm11.399.6H7.817l-2.82 1.879v-1.88H3.2a.6.6 0 0 1-.6-.6V3.818a.6.6 0 0 1 .6-.6h9.598a.6.6 0 0 1 .6.6v7.199a.6.6 0 0 1-.6.6Z" fill="#000" fill-opacity=".9"/><rect x="10" y="8.616" width="8" height="8" rx="4" fill="#00A650"/><path d="m13.31 13.333 2.605-2.604.585.585-3.19 3.19-1.81-1.81.585-.586 1.225 1.225Z" fill="#fff"/></svg>